PathFileType	4	(X/Y/Z)	C:/Users/beibeiliu/ov580/test_trc/User3\sequence.22_training_dense_right.trc
DataRate	CameraRate	NumFrames	NumMarkers	Units	OrigDataRate	OrigDataStartFrame	OrigNumFrames
120	120	16	19	mm	120	230	262
Frame#	Time	ThumbCMC			ThumbMCP			ThumbIP			ThumbTip			IndexMCP			IndexPIP			IndexTip			MiddleMCP			MiddlePIP			MiddleTip			RingMCP			RingPIP			RingTip			PinkyMCP			PinkyPIP			PinkyTip			BackHand1			BackHand2			BackHand3	
		X0	Y0	Z0	X1	Y1	Z1	X2	Y2	Z2	X3	Y3	Z3	X4	Y4	Z4	X5	Y5	Z5	X6	Y6	Z6	X7	Y7	Z7	X8	Y8	Z8	X9	Y9	Z9	X10	Y10	Z10	X11	Y11	Z11	X12	Y12	Z12	X13	Y13	Z13	X14	Y14	Z14	X15	Y15	Z15	X16	Y16	Z16	X17	Y17	Z17	X18	Y18	Z18	
229	1.90833	215.041	-49.6083	-7.00737	199.9	-52.8961	-34.7241	187.908	-63.7476	-62.024	170.81	-75.661	-75.0347	221.998	-120.41	-37.6963	216.817	-140.489	-61.3693	191.605	-141.397	-85.71	209.743	-135.114	-31.4566	192.539	-154.517	-58.4587	165.95	-138.717	-78.3992	193.848	-140.617	-20.7785	175.308	-153.1	-42.6622	153.259	-140.504	-56.7473	169.303	-136.812	-1.93436	155.08	-142.823	-23.3733	136.992	-128.34	-39.3359	203.03	-111.624	19.5703	208.379	-88.6154	44.7435	228.869	-82.9009	12.6807	
230	1.91667	219.221	-55.0729	-4.95312	206.87	-59.0428	-36.6472	197.199	-67.3832	-61.85	181.702	-86.5166	-74.8175	238.743	-120.024	-34.4006	235.058	-140.564	-56.6247	216.876	-140.267	-82.6736	224.281	-138.704	-25.4897	215.858	-156.602	-56.7578	191.171	-144.912	-77.4002	209.746	-139.956	-17.937	193.778	-156.506	-42.3331	172.541	-140.342	-60.4912	185.134	-140.494	-3.57411	169.781	-150.114	-23.501	156.253	-138.185	-39.4314	211.378	-110.143	25.3526	210.343	-90.8838	48.6253	234.135	-80.2151	16.5543	
231	1.925	224.837	-48.7325	-5.87732	214.458	-55.4776	-39.3986	207.108	-63.4855	-65.1892	192.629	-86.0994	-75.9266	253.106	-114.783	-33.26	251.913	-135.702	-61.5635	230.41	-136.331	-82.8887	237.461	-137.119	-24.418	232.316	-154.637	-54.9566	206.935	-146.735	-75.6916	222.976	-138.845	-17.7929	213.669	-155.294	-40.9751	188.534	-144.483	-58.4871	196.359	-140.891	-0.762634	184.281	-152.001	-25.6647	172.946	-140.814	-45.7156	221.036	-108.115	24.5379	216.474	-91.6372	46.4406	238.558	-80.6702	19.0813	
232	1.93333	225.009	-44.9047	-2.60302	216.255	-50.6321	-36.5142	211.968	-61.9759	-67.354	198.917	-81.816	-80.5502	262.886	-109.426	-33.3383	263.51	-126.212	-60.3814	245.412	-127.393	-83.1656	251.764	-131.973	-26.639	249.75	-147.458	-52.7967	218.591	-141.534	-79.8093	234.505	-137.866	-17.8549	227.09	-149.783	-46.4926	204.12	-139.389	-64.2652	211.98	-138.139	-5.84119	202.02	-149.88	-30.3015	188.461	-140.455	-46.6736	228.214	-107.19	22.5676	218.272	-86.1484	48.6682	244.381	-69.3329	18.9301	
233	1.94167	225.318	-37.5471	-4.12605	218.863	-40.8556	-39.751	215.244	-53.4223	-69.4468	204.819	-70.6187	-84.2993	270.034	-92.2041	-34.3373	275.958	-110.775	-64.4601	258.591	-112.408	-84.6174	266.081	-114.5	-28.7552	265.586	-132.184	-57.2438	236.534	-129.921	-84.9793	247.762	-125.772	-20.4409	242.829	-142.181	-45.1836	217.249	-135.307	-67.5249	222.607	-130.472	-7.8063	215.866	-144.821	-34.4594	199.807	-138.529	-51.2606	234.916	-96.8841	24.0877	226.562	-81.9059	43.442	245.028	-64.0665	19.6474	
234	1.95	221.701	-28.77	-3.98994	217.183	-34.0963	-40.0545	213.88	-42.2076	-70.371	208.439	-63.3495	-82.9165	277.597	-78.7089	-37.7184	283.758	-90.6239	-66.5074	265.789	-90.4723	-92.1981	273.186	-98.6219	-30.686	278.594	-112.174	-60.6249	248.7	-114.231	-88.4055	259.679	-110.355	-24.0194	258.864	-127.296	-49.6361	232.552	-122.389	-74.7657	235.631	-123.648	-12.6899	235.004	-132.259	-36.5922	218.381	-129.459	-57.1884	243.971	-87.8822	19.9736	230.501	-74.565	41.5414	246.475	-53.7602	17.0698	
235	1.95833	218.019	-20.9187	-6.14866	209.778	-21.7964	-37.8871	208.348	-29.6009	-70.2978	205.053	-48.5254	-86.8993	277.447	-51.412	-42.2006	286.966	-60.0724	-73.0409	270.847	-70.3145	-92.4378	280.273	-75.379	-36.4748	284.81	-88.1072	-69.1746	259.966	-93.7658	-91.8057	266.146	-92.2434	-27.2272	269.751	-107.629	-54.004	245.942	-109.272	-76.6168	248.568	-105.045	-17.7609	245.155	-121.145	-44.1902	229.278	-119.814	-60.8968	249.864	-71.2188	16.6748	234.966	-65.1896	39.5081	247.518	-39.8927	15.7562	
236	1.96667	209.288	-11.4672	-2.48069	199.793	-11.3634	-32.8865	201.131	-19.1767	-65.2985	202.615	-37.6258	-84.454	271.898	-29.5259	-42.5199	281.168	-29.5742	-74.1523	264.899	-39.039	-100.192	279.343	-51.0837	-40.3613	286.011	-57.2102	-71.7867	258.106	-72.1711	-97.6106	272.255	-72.2117	-34.3317	275.751	-83.5076	-60.2688	253.499	-87.7793	-81.9873	258.743	-88.1601	-25.6574	256.396	-97.8786	-48.8258	237.681	-100.912	-70.5545	252.109	-62.4614	13.6491	234.678	-55.2571	39.7589	242.614	-27.5549	14.5624	
237	1.975	198.895	-3.91599	0.963295	188.595	-1.86766	-31.2738	189.46	-6.4933	-61.0729	193.06	-22.5885	-81.3675	260.957	-6.79994	-41.0448	271.743	-5.64484	-70.8402	258.078	-16.4703	-101.323	275.307	-26.3619	-44.2547	279.291	-31.2007	-76.8656	254.834	-45.9789	-101.922	271.915	-48.1406	-39.042	274.533	-54.5223	-65.2196	254.738	-67.0855	-86.6286	260.518	-69.6906	-28.3148	261.093	-81.0552	-54.1721	242.909	-83.0122	-72.944	252.622	-42.3199	11.171	237.117	-43.2051	37.2048	235.447	-13.6886	18.2644	
238	1.98333	188.48	-0.415206	8.93199	180.246	2.13041	-25.0267	175.55	4.42951	-56.3794	180.313	-8.66103	-78.3681	249.704	10.9053	-39.4542	256.192	22.0495	-68.0961	246.524	11.5924	-96.504	264.55	-5.7831	-42.7853	269.268	-8.86166	-78.3714	249.083	-20.591	-101.641	264.468	-27.0395	-38.8762	269.572	-32.7169	-67.3759	246.577	-45.4035	-92.14	259.034	-53.7842	-31.3692	259.894	-56.6349	-55.4718	244.222	-62.602	-78.4898	247.074	-29.4128	12.1463	233.809	-38.7591	37.684	227.84	-3.1124	18.7191	
239	1.99167	179.053	6.35525	8.95295	170.2	7.826	-18.9488	164.488	10.2768	-49.7198	173.147	-0.053169	-76.4618	232.994	30.2346	-34.6055	241.97	40.1369	-62.9378	232.342	33.6323	-92.8053	252.747	12.3778	-40.807	259.155	14.6711	-72.6727	235.593	2.76724	-101.855	257.782	-8.8681	-40.52	259.694	-10.7987	-70.0903	240.105	-23.7106	-93.5054	252.91	-36.2364	-30.335	254.401	-35.1704	-56.2934	238.719	-45.5408	-80.9488	240.402	-17.1505	7.62952	229.909	-25.869	34.9283	217.54	3.51119	22.9021	
240	2	172.953	5.91914	14.9322	157.326	13.8928	-16.559	154.546	15.2302	-43.9112	158.658	8.82662	-69.9323	223.079	42.1586	-31.3803	227.674	55.2584	-61.0305	216.608	51.2303	-85.3584	241.867	28.9683	-38.6069	243.474	36.3933	-68.2569	221.321	21.3938	-99.5568	245.75	8.52111	-37.4241	247.658	11.5548	-68.5186	232.606	1.30717	-89.8976	249.479	-16.021	-33.2137	247.616	-12.7798	-56.8258	232.117	-21.638	-77.9955	235.172	-9.40925	12.2869	227.791	-21.5007	39.8253	211.019	11.9669	24.9663	
241	2.00833	164.221	9.47137	19.114	148.211	15.9936	-12.7116	145.874	19.9824	-40.7904	154.163	14.5231	-66.0956	206.057	52.5889	-24.4826	209.963	69.1722	-50.1375	198.09	65.5723	-78.2789	226.659	43.3778	-32.9568	227.455	54.2169	-63.4805	214.486	37.0804	-92.5553	234.689	24.4412	-33.6655	235.836	29.3324	-65.2249	222.331	15.5912	-87.1636	238.736	-0.566695	-29.1228	237.917	5.30698	-55.2036	221.47	-4.2263	-79.529	227.736	3.12628	14.6729	220.187	-11.7089	38.7324	201.711	18.6977	27.3521	
242	2.01667	156.32	10.8142	22.5212	142.806	15.5329	-6.27079	133.479	21.5796	-35.6459	141.715	18.0706	-57.7895	188.628	60.273	-15.6444	191.827	79.3982	-42.9719	183.855	74.7501	-72.2885	214.239	52.453	-27.4232	212.184	66.8155	-59.7554	202.071	51.7633	-87.8927	222.836	34.5777	-28.4795	222.294	45.6221	-59.1122	208.501	28.9302	-85.8834	230.692	10.6771	-25.5807	229.237	19.6841	-54.7913	213.029	13.0568	-77.5655	217.821	12.9214	13.7559	216.785	-5.84103	40.8824	190.728	20.6923	34.5442	
243	2.025	147.362	6.79884	30.037	132.475	13.7607	-0.281592	126.59	21.9151	-29.9299	130.033	22.3218	-55.0334	177.933	67.9142	-13.4792	173.723	85.5261	-36.6798	165.348	82.481	-65.4139	200.918	58.766	-21.213	201.316	75.2312	-50.8864	187.859	62.8998	-84.3191	210.127	45.9786	-24.7736	208.93	56.9537	-52.1592	198.075	45.2514	-78.5476	219.126	22.1321	-22.8152	218.529	32.2114	-49.2828	207.367	24.5646	-69.5354	213.951	18.8444	15.7605	210.895	0.145898	40.984	181.779	25.0131	37.2987	
244	2.03333	142.471	2.51709	33.5991	128.427	11.2395	2.69135	118.329	21.0365	-26.7028	120.991	23.0381	-50.2039	164.794	66.7166	-8.53361	158.563	87.2462	-32.3395	148.368	83.2194	-62.2435	185.226	64.9348	-15.3612	185.923	80.1191	-45.9365	172.629	68.9261	-80.1156	201.436	52.0154	-19.9018	201.189	63.1933	-46.6895	185.844	52.0462	-77.0056	213.717	28.8214	-19.6023	210.243	40.167	-44.2999	198.283	31.3225	-70.6948	203.145	23.9724	23.3469	205.632	3.491	44.0733	173.156	27.5871	38.2289	
